<svg id="Layer_1" data-name="Layer 1" xmlns="http://www.w3.org/2000/svg" viewBox="0 0 122.88 70.22"><defs><style>.cls-1{fill-rule:evenodd;}</style></defs><title>breakfast-time</title><path class="cls-1" d="M84.64,52q17.6,0,35.19,0a2.08,2.08,0,0,1,2.07,2.07c0,3.08-1.29,9.12-8.26,9.12H75.35c2.82-2.89,9-10.23,8.92-10.67.13-.18.25-.36.37-.55ZM42.76,3.69A2.27,2.27,0,0,1,42.3,2,2.31,2.31,0,0,1,43.17.48,2.24,2.24,0,0,1,44.86,0a2.27,2.27,0,0,1,1.53.87c1.71,2.22,1,4.4.29,6.83a13.68,13.68,0,0,0-.65,3,4.69,4.69,0,0,0,.72,2.91,2.3,2.3,0,0,1-3.88,2.47c-2.16-3.24-1.61-6.3-.57-9.77a14.68,14.68,0,0,0,.5-1.95,1.23,1.23,0,0,0,0-.71ZM23.38,6.6a16.91,16.91,0,0,1,9.14,22.07,16.94,16.94,0,0,1-9.16,9.16A16.9,16.9,0,0,1,0,22.21,17.14,17.14,0,0,1,10.52,6.49h0A16.59,16.59,0,0,1,16.9,5.34,17.54,17.54,0,0,1,23.37,6.6ZM14.76,21V14a1.64,1.64,0,0,1,.48-1.17,1.67,1.67,0,0,1,1.17-.49A1.67,1.67,0,0,1,18.07,14v7a3.14,3.14,0,0,1,.57.45,3.51,3.51,0,0,1,.44.56h5a1.65,1.65,0,0,1,1.17,2.82l0,0a1.63,1.63,0,0,1-1.15.46h-5A3.22,3.22,0,0,1,18,26.37a3.14,3.14,0,0,1-2.9.16,3.08,3.08,0,0,1-1.07-.79h0a3.16,3.16,0,0,1-.4-.58,3.11,3.11,0,0,1-.31-2.06,3.16,3.16,0,0,1,1-1.79,3,3,0,0,1,.4-.3Zm11.75-8.15A13.71,13.71,0,0,0,14.42,9a13.37,13.37,0,0,0-7.21,3.7,13.39,13.39,0,0,0-3.57,6.57h0a14,14,0,0,0-.31,2.91,13.55,13.55,0,0,0,4,9.61A13.58,13.58,0,0,0,30.49,22.2a13.91,13.91,0,0,0-.34-3.05,14.06,14.06,0,0,0-1-2.88v0A10,10,0,0,0,28,14.47a19.67,19.67,0,0,0-1.47-1.61Zm1,41.62a20.76,20.76,0,0,1-4.37-6.61,19.68,19.68,0,0,1-.86-2.52,23.4,23.4,0,0,0,3.29-1.18,17.67,17.67,0,0,0,17,13.26H47.2a17.52,17.52,0,0,0,12.42-5.17A17.73,17.73,0,0,0,64,45c.9-3,.76-5.3.76-8.26V24.06H39.56c0-.5,0-1,0-1.51,0-.67,0-1.32-.09-2H66a2.32,2.32,0,0,1,1.63.67,2.29,2.29,0,0,1,.68,1.63v6.91h.14a23.11,23.11,0,0,1,4.92.11,8.35,8.35,0,0,1,4.75,2.39,8.77,8.77,0,0,1,2,3.26,10.15,10.15,0,0,1,.53,3.94,11.32,11.32,0,0,1-.33,2.14,13.23,13.23,0,0,1-.73,2.08,13.19,13.19,0,0,1-2.69,3.83A14.88,14.88,0,0,1,71.13,51a20.6,20.6,0,0,1-6.73,1c-.29.42-.59.81-.9,1.19-.44.53-.91,1.06-1.42,1.57h0a21,21,0,0,1-14.89,6.19H42.58a21.73,21.73,0,0,1-15.11-6.44ZM67.73,33.3v6.15a18.75,18.75,0,0,1-1.86,8.15c4-.11,6.88-1.43,8.72-3.25a8.86,8.86,0,0,0,1.86-2.63,7.75,7.75,0,0,0,.7-2.8,5.61,5.61,0,0,0-1.44-4.3c-1.6-1.63-4.15-1.5-6.62-1.38-.45,0-.89,0-1.36.06ZM54,3.69A2.23,2.23,0,0,1,53.58,2,2.27,2.27,0,0,1,54.45.48,2.24,2.24,0,0,1,56.14,0a2.27,2.27,0,0,1,1.53.87c1.67,2.17,1.06,4.28.33,6.7a14.21,14.21,0,0,0-.7,3.15A4.76,4.76,0,0,0,58,13.65a2.3,2.3,0,0,1-3.88,2.47,9,9,0,0,1-1.47-5.35,17.32,17.32,0,0,1,.89-4.41c.14-.44.76-2.29.47-2.67ZM4.22,70.22c-2.78,0-2.81-4.53,0-4.53H119.08a2.27,2.27,0,1,1,0,4.53Zm101.11-50a3.18,3.18,0,1,1-3.18,3.18,3.18,3.18,0,0,1,3.18-3.18Zm-27.11.28a3.23,3.23,0,0,1,2,1.24A20.53,20.53,0,0,1,82.72,24a20.27,20.27,0,0,1,2.84,3.64,20.67,20.67,0,0,1,1.9,4c.09.27.18.55.25.82q.23.72.39,1.44h29c13.94,0,1.5-20.87-26.21-20.59a58,58,0,0,0-16.43,2.64,15,15,0,0,1,.73,1.51h0a14.06,14.06,0,0,1,.66,2c.4.16.8.34,1.21.53s.75.38,1.11.58Zm13.14-3.09a3.18,3.18,0,1,1-3.18,3.18,3.17,3.17,0,0,1,3.18-3.18ZM121.77,42a1,1,0,0,1,.13.48c0,.11,0,.23,0,.35s0,.23,0,.34a1,1,0,0,1-.13.48c-.48,2-2.36,4.73-8.13,4.73h-27c.32-.71.56-1.29.72-1.75.25-.72.47-1.43.64-2.12a21.79,21.79,0,0,0,.45-2.18q.13-.85.21-2.19a23,23,0,0,0,0-2.87H92l8.56,8.84,8.5-8.84h4.55c5.78,0,7.65,2.69,8.13,4.73Z"/></svg>